<svg id="eLWoQAtgsrj1" xmlns="http://www.w3.org/2000/svg" xmlns:xlink="http://www.w3.org/1999/xlink" viewBox="0 0 1920 1080" shape-rendering="geometricPrecision" text-rendering="geometricPrecision"><defs><linearGradient id="eLWoQAtgsrj2-fill" x1="0.035468" y1="0.455951" x2="0.605062" y2="0.001739" spreadMethod="pad" gradientUnits="objectBoundingBox" gradientTransform="translate(0 0)"><stop id="eLWoQAtgsrj2-fill-0" offset="0%" stop-color="rgba(0,0,0,0.12)"/><stop id="eLWoQAtgsrj2-fill-1" offset="100%" stop-color="#f8f6f2"/></linearGradient><linearGradient id="eLWoQAtgsrj3-fill" x1="0.173383" y1="0.749503" x2="0.643566" y2="0.226046" spreadMethod="pad" gradientUnits="objectBoundingBox" gradientTransform="translate(0 0)"><stop id="eLWoQAtgsrj3-fill-0" offset="53%" stop-color="#000"/><stop id="eLWoQAtgsrj3-fill-1" offset="100%" stop-color="#f8f6f2"/></linearGradient><linearGradient id="eLWoQAtgsrj4-fill" x1="0.503379" y1="0.708587" x2="0.533423" y2="0.107369" spreadMethod="pad" gradientUnits="objectBoundingBox" gradientTransform="translate(0 0)"><stop id="eLWoQAtgsrj4-fill-0" offset="53%" stop-color="rgba(0,0,0,0.14)"/><stop id="eLWoQAtgsrj4-fill-1" offset="100%" stop-color="#334a91"/></linearGradient><linearGradient id="eLWoQAtgsrj5-fill" x1="0.503379" y1="0.708587" x2="0.533423" y2="0.107369" spreadMethod="pad" gradientUnits="objectBoundingBox" gradientTransform="translate(0 0)"><stop id="eLWoQAtgsrj5-fill-0" offset="53%" stop-color="rgba(0,0,0,0.14)"/><stop id="eLWoQAtgsrj5-fill-1" offset="100%" stop-color="#334a91"/></linearGradient><linearGradient id="eLWoQAtgsrj6-fill" x1="0.503379" y1="0.708587" x2="0.533423" y2="0.107369" spreadMethod="pad" gradientUnits="objectBoundingBox" gradientTransform="translate(0 0)"><stop id="eLWoQAtgsrj6-fill-0" offset="53%" stop-color="rgba(0,0,0,0.14)"/><stop id="eLWoQAtgsrj6-fill-1" offset="100%" stop-color="#334a91"/></linearGradient><linearGradient id="eLWoQAtgsrj9-fill" x1="0.520681" y1="0.5" x2="0.908695" y2="0.161094" spreadMethod="pad" gradientUnits="objectBoundingBox" gradientTransform="translate(0 0)"><stop id="eLWoQAtgsrj9-fill-0" offset="0%" stop-color="#fff4f4"/><stop id="eLWoQAtgsrj9-fill-1" offset="100%" stop-color="rgba(255,255,255,0)"/></linearGradient><linearGradient id="eLWoQAtgsrj12-fill" x1="0.520681" y1="0.5" x2="0.908695" y2="0.161094" spreadMethod="pad" gradientUnits="objectBoundingBox" gradientTransform="translate(0 0)"><stop id="eLWoQAtgsrj12-fill-0" offset="0%" stop-color="#fff4f4"/><stop id="eLWoQAtgsrj12-fill-1" offset="100%" stop-color="rgba(255,255,255,0)"/></linearGradient><linearGradient id="eLWoQAtgsrj15-fill" x1="0.520681" y1="0.5" x2="0.908695" y2="0.161094" spreadMethod="pad" gradientUnits="objectBoundingBox" gradientTransform="translate(0 0)"><stop id="eLWoQAtgsrj15-fill-0" offset="0%" stop-color="#fff4f4"/><stop id="eLWoQAtgsrj15-fill-1" offset="100%" stop-color="rgba(255,255,255,0)"/></linearGradient></defs><polygon points="0,-279.671026 279.671026,0 0,279.671026 -279.671026,0 0,-279.671026" transform="matrix(.688213-.005108 0.006282 0.846495 601.726647 841.703965)" opacity="0.21" fill="url(#eLWoQAtgsrj2-fill)" stroke-width="0"/><polygon points="0,-279.671026 279.671026,0 0,279.671026 -279.671026,0 0,-279.671026" transform="matrix(.867696-.008915 0.009585 0.932934 1243.436019 820.039021)" opacity="0.21" fill="url(#eLWoQAtgsrj3-fill)" stroke-width="0"/><polygon points="0,-279.671026 279.671026,0 0,279.671026 -279.671026,0 0,-279.671026" transform="matrix(1.183934-.012163 0.013726 1.33602 305.468406 1112.335021)" opacity="0.21" fill="url(#eLWoQAtgsrj4-fill)" stroke-width="0"/><polygon points="0,-279.671026 279.671026,0 0,279.671026 -279.671026,0 0,-279.671026" transform="matrix(1.183934-.012163 0.013726 1.33602 912.712809 1086.848473)" opacity="0.21" fill="url(#eLWoQAtgsrj5-fill)" stroke-width="0"/><polygon points="0,-279.671026 279.671026,0 0,279.671026 -279.671026,0 0,-279.671026" transform="matrix(1.183934-.012163 0.013726 1.33602 1585.049336 1076.888006)" opacity="0.21" fill="url(#eLWoQAtgsrj6-fill)" stroke-width="0"/><g transform="matrix(.5 0 0 0.5 609.771369 371.223119)" opacity="0.2"><path d="M429.71081,464.46189l-49.18825-69.53016L764.2099,123.4969l49.18825,69.53016L429.71081,464.46189Z" fill="url(#eLWoQAtgsrj9-fill)" stroke-width="0"/><path d="M-130.373122,0c0-69.485496,58.370035-125.814621,130.373122-125.814621s130.373122,56.329125,130.373122,125.814621-58.370035,125.814621-130.373122,125.814621-130.373122-56.329125-130.373122-125.814621Z" transform="matrix(.321618 0 0 0.33737 407.273544 427.892378)" fill="#fff4f4" stroke-linecap="round"/></g><g transform="matrix(.5 0 0 0.5 544.522987-.806086)" opacity="0.25"><path d="M429.71081,464.46189l-49.18825-69.53016L764.2099,123.4969l49.18825,69.53016L429.71081,464.46189Z" fill="url(#eLWoQAtgsrj12-fill)" stroke-width="0"/><path d="M-130.373122,0c0-69.485496,58.370035-125.814621,130.373122-125.814621s130.373122,56.329125,130.373122,125.814621-58.370035,125.814621-130.373122,125.814621-130.373122-56.329125-130.373122-125.814621Z" transform="matrix(.321618 0 0 0.33737 407.273544 427.892378)" fill="#fff4f4" stroke-linecap="round"/></g><g transform="matrix(.5 0 0 0.5-180.638901 49.281219)" opacity="0.25"><path d="M429.71081,464.46189l-49.18825-69.53016L764.2099,123.4969l49.18825,69.53016L429.71081,464.46189Z" fill="url(#eLWoQAtgsrj15-fill)" stroke-width="0"/><path d="M-130.373122,0c0-69.485496,58.370035-125.814621,130.373122-125.814621s130.373122,56.329125,130.373122,125.814621-58.370035,125.814621-130.373122,125.814621-130.373122-56.329125-130.373122-125.814621Z" transform="matrix(.321618 0 0 0.33737 407.273544 427.892378)" fill="#fff4f4" stroke-linecap="round"/></g></svg>
