<svg cache-id="c06f7c5d337f4ec695037c28124d5802" id="eSG7Uhu1BNZ1" xmlns="http://www.w3.org/2000/svg" xmlns:xlink="http://www.w3.org/1999/xlink" viewBox="0 0 1920 1080" shape-rendering="geometricPrecision" text-rendering="geometricPrecision"><line x1="49.069463" y1="-35.229358" x2="-49.069462" y2="35.229358" transform="translate(761.205767 721.305377)" opacity="0.25" fill="none" stroke="#3f5787" stroke-width="3"/><line x1="49.069463" y1="-35.229358" x2="-49.069462" y2="35.229358" transform="translate(580.026212 291.003932)" opacity="0.25" fill="none" stroke="#3f5787" stroke-width="3"/><line x1="49.069463" y1="-35.229358" x2="-49.069462" y2="35.229358" transform="translate(1423.014417 396.692005)" opacity="0.25" fill="none" stroke="#3f5787" stroke-width="3"/><line x1="49.069463" y1="-35.229358" x2="-49.069462" y2="35.229358" transform="translate(134.626476 791.764093)" opacity="0.25" fill="none" stroke="#3f5787" stroke-width="3"/><line x1="49.069463" y1="-35.229358" x2="-49.069462" y2="35.229358" transform="translate(761.205767 721.305377)" opacity="0.42" fill="none" stroke="#3f5787" stroke-width="3"/><line x1="49.069463" y1="-35.229358" x2="-49.069462" y2="35.229358" transform="translate(1669.619921 905.001311)" opacity="0.4" fill="none" stroke="#3f5787" stroke-width="3"/><g transform="translate(.000001 0)" opacity="0.1"><rect width="249.880478" height="24.062701" rx="0" ry="0" transform="translate(163.187251 431.921362)" fill="#d2dbed" stroke-width="0"/><ellipse rx="38.247012" ry="41.245033" transform="translate(163.187251 414.73903)" fill="#d2dbed" stroke-width="0"/><ellipse rx="38.247012" ry="41.245033" transform="translate(413.067729 414.73903)" fill="#d2dbed" stroke-width="0"/><ellipse rx="57.370518" ry="49.497005" transform="translate(201.434263 373.493997)" fill="#d2dbed" stroke-width="0"/><ellipse rx="107.091634" ry="81.952452" transform="matrix(.619047 0 0 0.603972 239.681275 340.500918)" fill="#d2dbed" stroke-width="0"/><ellipse rx="107.091634" ry="81.952452" transform="matrix(.619047 0 0 0.603972 308.525962 340.500918)" fill="#d2dbed" stroke-width="0"/><ellipse rx="107.091634" ry="81.952452" transform="matrix(.619047 0 0 0.603972 354.422245 365.242006)" fill="#d2dbed" stroke-width="0"/><ellipse rx="107.091634" ry="81.952452" transform="matrix(1.178572 0 0 0.603972 286.852528 396.692005)" fill="#d2dbed" stroke-width="0"/></g><g transform="translate(1430.561897 347.811374)" opacity="0.1"><rect width="249.880478" height="24.062701" rx="0" ry="0" transform="translate(163.187251 431.921362)" fill="#d2dbed" stroke-width="0"/><ellipse rx="38.247012" ry="41.245033" transform="translate(163.187251 414.73903)" fill="#d2dbed" stroke-width="0"/><ellipse rx="38.247012" ry="41.245033" transform="translate(413.067729 414.73903)" fill="#d2dbed" stroke-width="0"/><ellipse rx="57.370518" ry="49.497005" transform="translate(201.434263 373.493997)" fill="#d2dbed" stroke-width="0"/><ellipse rx="107.091634" ry="81.952452" transform="matrix(.619047 0 0 0.603972 239.681275 340.500918)" fill="#d2dbed" stroke-width="0"/><ellipse rx="107.091634" ry="81.952452" transform="matrix(.619047 0 0 0.603972 308.525962 340.500918)" fill="#d2dbed" stroke-width="0"/><ellipse rx="107.091634" ry="81.952452" transform="matrix(.619047 0 0 0.603972 354.422245 365.242006)" fill="#d2dbed" stroke-width="0"/><ellipse rx="107.091634" ry="81.952452" transform="matrix(1.178572 0 0 0.603972 286.852528 396.692005)" fill="#d2dbed" stroke-width="0"/></g></svg>
