<svg id="eHJpxN4v8Z11" xmlns="http://www.w3.org/2000/svg" xmlns:xlink="http://www.w3.org/1999/xlink" viewBox="0 0 1920 1080" shape-rendering="geometricPrecision" text-rendering="geometricPrecision"><defs><linearGradient id="eHJpxN4v8Z13-fill" x1="0" y1="0.5" x2="1" y2="0.5" spreadMethod="pad" gradientUnits="objectBoundingBox" gradientTransform="translate(0 0)"><stop id="eHJpxN4v8Z13-fill-0" offset="0%" stop-color="#000"/><stop id="eHJpxN4v8Z13-fill-1" offset="100%" stop-color="#403939"/></linearGradient><linearGradient id="eHJpxN4v8Z14-fill" x1="0" y1="0.5" x2="1" y2="0.5" spreadMethod="pad" gradientUnits="objectBoundingBox" gradientTransform="translate(0 0)"><stop id="eHJpxN4v8Z14-fill-0" offset="0%" stop-color="#958787"/><stop id="eHJpxN4v8Z14-fill-1" offset="100%" stop-color="#0a3a93"/></linearGradient><linearGradient id="eHJpxN4v8Z16-fill" x1="0" y1="0.5" x2="1" y2="0.5" spreadMethod="pad" gradientUnits="objectBoundingBox" gradientTransform="translate(0 0)"><stop id="eHJpxN4v8Z16-fill-0" offset="0%" stop-color="#a19696"/><stop id="eHJpxN4v8Z16-fill-1" offset="100%" stop-color="#020925"/></linearGradient><linearGradient id="eHJpxN4v8Z17-fill" x1="0.362251" y1="1.187065" x2="0.961941" y2="0.250071" spreadMethod="pad" gradientUnits="objectBoundingBox" gradientTransform="translate(0 0)"><stop id="eHJpxN4v8Z17-fill-0" offset="0%" stop-color="#000"/><stop id="eHJpxN4v8Z17-fill-1" offset="100%" stop-color="#2e2929"/></linearGradient><linearGradient id="eHJpxN4v8Z19-fill" x1="0" y1="0.5" x2="1" y2="0.5" spreadMethod="pad" gradientUnits="objectBoundingBox" gradientTransform="translate(0 0)"><stop id="eHJpxN4v8Z19-fill-0" offset="0%" stop-color="#a19696"/><stop id="eHJpxN4v8Z19-fill-1" offset="100%" stop-color="#020925"/></linearGradient><linearGradient id="eHJpxN4v8Z110-fill" x1="0.362251" y1="1.187065" x2="0.961941" y2="0.250071" spreadMethod="pad" gradientUnits="objectBoundingBox" gradientTransform="translate(0 0)"><stop id="eHJpxN4v8Z110-fill-0" offset="0%" stop-color="#000"/><stop id="eHJpxN4v8Z110-fill-1" offset="100%" stop-color="#2e2929"/></linearGradient><linearGradient id="eHJpxN4v8Z111-fill" x1="0.5" y1="0.68" x2="0.851351" y2="0.16" spreadMethod="pad" gradientUnits="objectBoundingBox" gradientTransform="translate(0 0)"><stop id="eHJpxN4v8Z111-fill-0" offset="0%" stop-color="#d2dbed"/><stop id="eHJpxN4v8Z111-fill-1" offset="100%" stop-color="#2d2412"/></linearGradient><filter id="eHJpxN4v8Z112-filter" x="-150%" width="400%" y="-150%" height="400%"><feGaussianBlur id="eHJpxN4v8Z112-filter-blur-0" stdDeviation="90,90" result="result"/><feComponentTransfer id="eHJpxN4v8Z112-filter-invert-0" result="result"><feFuncR id="eHJpxN4v8Z112-filter-invert-0-R" type="table" tableValues="1 0"/><feFuncG id="eHJpxN4v8Z112-filter-invert-0-G" type="table" tableValues="1 0"/><feFuncB id="eHJpxN4v8Z112-filter-invert-0-B" type="table" tableValues="1 0"/></feComponentTransfer><feComponentTransfer id="eHJpxN4v8Z112-filter-brightness-0" result="result"><feFuncR id="eHJpxN4v8Z112-filter-brightness-0-R" type="linear" slope="0"/><feFuncG id="eHJpxN4v8Z112-filter-brightness-0-G" type="linear" slope="0"/><feFuncB id="eHJpxN4v8Z112-filter-brightness-0-B" type="linear" slope="0"/></feComponentTransfer></filter><linearGradient id="eHJpxN4v8Z112-fill" x1="0.434218" y1="1.510785" x2="0.435216" y2="0.780009" spreadMethod="pad" gradientUnits="objectBoundingBox" gradientTransform="translate(0 0)"><stop id="eHJpxN4v8Z112-fill-0" offset="58.8274%" stop-color="rgba(0,0,0,0)"/><stop id="eHJpxN4v8Z112-fill-1" offset="100%" stop-color="rgba(158,138,138,0.94)"/></linearGradient><linearGradient id="eHJpxN4v8Z113-fill" x1="0.5" y1="0.847778" x2="0.5" y2="0.255551" spreadMethod="pad" gradientUnits="objectBoundingBox" gradientTransform="translate(0 0)"><stop id="eHJpxN4v8Z113-fill-0" offset="0%" stop-color="#000"/><stop id="eHJpxN4v8Z113-fill-1" offset="28%" stop-color="#000"/><stop id="eHJpxN4v8Z113-fill-2" offset="69%" stop-color="#000"/><stop id="eHJpxN4v8Z113-fill-3" offset="100%" stop-color="#000"/></linearGradient><linearGradient id="eHJpxN4v8Z115-fill" x1="0.5" y1="0.847778" x2="0.5" y2="0.255551" spreadMethod="pad" gradientUnits="objectBoundingBox" gradientTransform="translate(0 0)"><stop id="eHJpxN4v8Z115-fill-0" offset="0%" stop-color="rgba(0,0,0,0)"/><stop id="eHJpxN4v8Z115-fill-1" offset="100%" stop-color="rgba(0,0,0,0.76)"/></linearGradient><linearGradient id="eHJpxN4v8Z116-fill" x1="0.5" y1="0.847778" x2="0.5" y2="0.255551" spreadMethod="pad" gradientUnits="objectBoundingBox" gradientTransform="translate(0 0)"><stop id="eHJpxN4v8Z116-fill-0" offset="0%" stop-color="rgba(0,0,0,0)"/><stop id="eHJpxN4v8Z116-fill-1" offset="100%" stop-color="rgba(0,0,0,0.76)"/></linearGradient><linearGradient id="eHJpxN4v8Z117-fill" x1="0.5" y1="0.847778" x2="0.5" y2="0.255551" spreadMethod="pad" gradientUnits="objectBoundingBox" gradientTransform="translate(0 0)"><stop id="eHJpxN4v8Z117-fill-0" offset="0%" stop-color="rgba(0,0,0,0)"/><stop id="eHJpxN4v8Z117-fill-1" offset="100%" stop-color="rgba(0,0,0,0.76)"/></linearGradient><linearGradient id="eHJpxN4v8Z118-fill" x1="0.5" y1="0.847778" x2="0.5" y2="0.255551" spreadMethod="pad" gradientUnits="objectBoundingBox" gradientTransform="translate(0 0)"><stop id="eHJpxN4v8Z118-fill-0" offset="0%" stop-color="rgba(0,0,0,0)"/><stop id="eHJpxN4v8Z118-fill-1" offset="100%" stop-color="rgba(0,0,0,0.76)"/></linearGradient><linearGradient id="eHJpxN4v8Z119-fill" x1="0.5" y1="0.847778" x2="0.5" y2="0.255551" spreadMethod="pad" gradientUnits="objectBoundingBox" gradientTransform="translate(0 0)"><stop id="eHJpxN4v8Z119-fill-0" offset="0%" stop-color="rgba(0,0,0,0)"/><stop id="eHJpxN4v8Z119-fill-1" offset="100%" stop-color="rgba(0,0,0,0.76)"/></linearGradient><linearGradient id="eHJpxN4v8Z120-fill" x1="0.5" y1="0.847778" x2="0.5" y2="0.255551" spreadMethod="pad" gradientUnits="objectBoundingBox" gradientTransform="translate(0 0)"><stop id="eHJpxN4v8Z120-fill-0" offset="0%" stop-color="rgba(0,0,0,0)"/><stop id="eHJpxN4v8Z120-fill-1" offset="100%" stop-color="rgba(0,0,0,0.76)"/></linearGradient><linearGradient id="eHJpxN4v8Z121-fill" x1="0.5" y1="0.847778" x2="0.5" y2="0.255551" spreadMethod="pad" gradientUnits="objectBoundingBox" gradientTransform="translate(0 0)"><stop id="eHJpxN4v8Z121-fill-0" offset="0%" stop-color="rgba(0,0,0,0)"/><stop id="eHJpxN4v8Z121-fill-1" offset="100%" stop-color="rgba(0,0,0,0.76)"/></linearGradient><linearGradient id="eHJpxN4v8Z122-fill" x1="0.5" y1="0.847778" x2="0.5" y2="0.255551" spreadMethod="pad" gradientUnits="objectBoundingBox" gradientTransform="translate(0 0)"><stop id="eHJpxN4v8Z122-fill-0" offset="0%" stop-color="#000"/><stop id="eHJpxN4v8Z122-fill-1" offset="100%" stop-color="rgba(0,0,0,0.76)"/></linearGradient><linearGradient id="eHJpxN4v8Z123-fill" x1="0.5" y1="0.847778" x2="0.5" y2="0.255551" spreadMethod="pad" gradientUnits="objectBoundingBox" gradientTransform="translate(0 0)"><stop id="eHJpxN4v8Z123-fill-0" offset="0%" stop-color="#000"/><stop id="eHJpxN4v8Z123-fill-1" offset="100%" stop-color="rgba(0,0,0,0.76)"/></linearGradient><linearGradient id="eHJpxN4v8Z124-fill" x1="0.5" y1="0.847778" x2="0.5" y2="0.255551" spreadMethod="pad" gradientUnits="objectBoundingBox" gradientTransform="translate(0 0)"><stop id="eHJpxN4v8Z124-fill-0" offset="0%" stop-color="#000"/><stop id="eHJpxN4v8Z124-fill-1" offset="100%" stop-color="rgba(0,0,0,0.76)"/></linearGradient><linearGradient id="eHJpxN4v8Z125-fill" x1="0.5" y1="0.847778" x2="0.5" y2="0.255551" spreadMethod="pad" gradientUnits="objectBoundingBox" gradientTransform="translate(0 0)"><stop id="eHJpxN4v8Z125-fill-0" offset="0%" stop-color="rgba(0,0,0,0)"/><stop id="eHJpxN4v8Z125-fill-1" offset="100%" stop-color="rgba(246,241,241,0.76)"/></linearGradient><linearGradient id="eHJpxN4v8Z126-fill" x1="0.5" y1="0.847778" x2="0.5" y2="0.255551" spreadMethod="pad" gradientUnits="objectBoundingBox" gradientTransform="translate(0 0)"><stop id="eHJpxN4v8Z126-fill-0" offset="0%" stop-color="rgba(0,0,0,0)"/><stop id="eHJpxN4v8Z126-fill-1" offset="100%" stop-color="rgba(0,0,0,0.76)"/></linearGradient><linearGradient id="eHJpxN4v8Z127-fill" x1="0.5" y1="0.847778" x2="0.5" y2="0.255551" spreadMethod="pad" gradientUnits="objectBoundingBox" gradientTransform="translate(0 0)"><stop id="eHJpxN4v8Z127-fill-0" offset="0%" stop-color="rgba(0,0,0,0)"/><stop id="eHJpxN4v8Z127-fill-1" offset="100%" stop-color="rgba(0,0,0,0.76)"/></linearGradient><linearGradient id="eHJpxN4v8Z128-fill" x1="0.5" y1="0.847778" x2="0.5" y2="0.255551" spreadMethod="pad" gradientUnits="objectBoundingBox" gradientTransform="translate(0 0)"><stop id="eHJpxN4v8Z128-fill-0" offset="0%" stop-color="rgba(0,0,0,0)"/><stop id="eHJpxN4v8Z128-fill-1" offset="100%" stop-color="rgba(0,0,0,0.76)"/></linearGradient><linearGradient id="eHJpxN4v8Z129-fill" x1="0.5" y1="0.90865" x2="0.5" y2="0.554144" spreadMethod="pad" gradientUnits="objectBoundingBox" gradientTransform="translate(0 0)"><stop id="eHJpxN4v8Z129-fill-0" offset="0%" stop-color="rgba(0,0,0,0)"/><stop id="eHJpxN4v8Z129-fill-1" offset="44%" stop-color="#070707"/></linearGradient><linearGradient id="eHJpxN4v8Z130-fill" x1="0.5" y1="0.847778" x2="0.5" y2="0.255551" spreadMethod="pad" gradientUnits="objectBoundingBox" gradientTransform="translate(0 0)"><stop id="eHJpxN4v8Z130-fill-0" offset="0%" stop-color="rgba(0,0,0,0)"/><stop id="eHJpxN4v8Z130-fill-1" offset="23%" stop-color="#8c8686"/><stop id="eHJpxN4v8Z130-fill-2" offset="36%" stop-color="#5c5959"/><stop id="eHJpxN4v8Z130-fill-3" offset="54%" stop-color="#7a7474"/><stop id="eHJpxN4v8Z130-fill-4" offset="69%" stop-color="#7e7777"/><stop id="eHJpxN4v8Z130-fill-5" offset="100%" stop-color="#231e1e"/></linearGradient><linearGradient id="eHJpxN4v8Z131-fill" x1="0.5" y1="0.847778" x2="0.5" y2="0.255551" spreadMethod="pad" gradientUnits="objectBoundingBox" gradientTransform="translate(0 0)"><stop id="eHJpxN4v8Z131-fill-0" offset="0%" stop-color="rgba(0,0,0,0)"/><stop id="eHJpxN4v8Z131-fill-1" offset="100%" stop-color="rgba(0,0,0,0.76)"/></linearGradient><filter id="eHJpxN4v8Z132-filter" x="-150%" width="400%" y="-150%" height="400%"><feGaussianBlur id="eHJpxN4v8Z132-filter-blur-0" stdDeviation="60,60" result="result"/></filter><linearGradient id="eHJpxN4v8Z132-fill" x1="0.632281" y1="-0.348057" x2="0.395031" y2="0.752732" spreadMethod="pad" gradientUnits="objectBoundingBox" gradientTransform="translate(0 0)"><stop id="eHJpxN4v8Z132-fill-0" offset="0%" stop-color="#090808"/><stop id="eHJpxN4v8Z132-fill-1" offset="100%" stop-color="rgba(255,255,255,0.33)"/></linearGradient><linearGradient id="eHJpxN4v8Z133-fill" x1="0.5" y1="0.847778" x2="0.5" y2="0.255551" spreadMethod="pad" gradientUnits="objectBoundingBox" gradientTransform="translate(0 0)"><stop id="eHJpxN4v8Z133-fill-0" offset="0%" stop-color="rgba(0,0,0,0)"/><stop id="eHJpxN4v8Z133-fill-1" offset="44%" stop-color="#000"/><stop id="eHJpxN4v8Z133-fill-2" offset="100%" stop-color="#000"/></linearGradient><linearGradient id="eHJpxN4v8Z134-fill" x1="0.5" y1="0.971773" x2="0.5" y2="0.782745" spreadMethod="pad" gradientUnits="objectBoundingBox" gradientTransform="translate(0 0)"><stop id="eHJpxN4v8Z134-fill-0" offset="0%" stop-color="rgba(0,0,0,0)"/><stop id="eHJpxN4v8Z134-fill-1" offset="0%" stop-color="rgba(0,0,0,0)"/><stop id="eHJpxN4v8Z134-fill-2" offset="100%" stop-color="#000"/></linearGradient><linearGradient id="eHJpxN4v8Z135-fill" x1="0.5" y1="0.90865" x2="0.563006" y2="0" spreadMethod="pad" gradientUnits="objectBoundingBox" gradientTransform="translate(0 0)"><stop id="eHJpxN4v8Z135-fill-0" offset="0%" stop-color="rgba(0,0,0,0)"/><stop id="eHJpxN4v8Z135-fill-1" offset="19.3585%" stop-color="#131313"/><stop id="eHJpxN4v8Z135-fill-2" offset="59.3645%" stop-color="#3a453c"/><stop id="eHJpxN4v8Z135-fill-3" offset="81%" stop-color="#070707"/></linearGradient><linearGradient id="eHJpxN4v8Z136-fill" x1="0.5" y1="0.847778" x2="0.5" y2="0.255551" spreadMethod="pad" gradientUnits="objectBoundingBox" gradientTransform="translate(0 0)"><stop id="eHJpxN4v8Z136-fill-0" offset="0%" stop-color="#000"/><stop id="eHJpxN4v8Z136-fill-1" offset="100%" stop-color="rgba(0,0,0,0.76)"/></linearGradient><linearGradient id="eHJpxN4v8Z137-fill" x1="0.5" y1="0.847778" x2="0.5" y2="0.255551" spreadMethod="pad" gradientUnits="objectBoundingBox" gradientTransform="translate(0 0)"><stop id="eHJpxN4v8Z137-fill-0" offset="0%" stop-color="#000"/><stop id="eHJpxN4v8Z137-fill-1" offset="100%" stop-color="rgba(0,0,0,0.76)"/></linearGradient><linearGradient id="eHJpxN4v8Z138-fill" x1="0.553633" y1="1.000114" x2="0.540821" y2="-4.552559" spreadMethod="pad" gradientUnits="objectBoundingBox" gradientTransform="translate(0 0)"><stop id="eHJpxN4v8Z138-fill-0" offset="0%" stop-color="rgba(0,0,0,0)"/><stop id="eHJpxN4v8Z138-fill-1" offset="17%" stop-color="#07b1b6"/><stop id="eHJpxN4v8Z138-fill-2" offset="66%" stop-color="#1c1e2b"/><stop id="eHJpxN4v8Z138-fill-3" offset="82.834%" stop-color="#416e8c"/><stop id="eHJpxN4v8Z138-fill-4" offset="100%" stop-color="#fff"/></linearGradient><filter id="eHJpxN4v8Z139-filter" x="-150%" width="400%" y="-150%" height="400%"><feColorMatrix id="eHJpxN4v8Z139-filter-hue-rotate-0" type="hueRotate" values="360" result="result"/><feComponentTransfer id="eHJpxN4v8Z139-filter-invert-0" result="result"><feFuncR id="eHJpxN4v8Z139-filter-invert-0-R" type="table" tableValues="0 1"/><feFuncG id="eHJpxN4v8Z139-filter-invert-0-G" type="table" tableValues="0 1"/><feFuncB id="eHJpxN4v8Z139-filter-invert-0-B" type="table" tableValues="0 1"/></feComponentTransfer></filter><linearGradient id="eHJpxN4v8Z140-fill" x1="0" y1="0.5" x2="1" y2="0.5" spreadMethod="pad" gradientUnits="objectBoundingBox" gradientTransform="translate(0 0)"><stop id="eHJpxN4v8Z140-fill-0" offset="0%" stop-color="#000"/><stop id="eHJpxN4v8Z140-fill-1" offset="100%" stop-color="#089094"/></linearGradient><linearGradient id="eHJpxN4v8Z141-fill" x1="0.274249" y1="0.911126" x2="1" y2="0.155429" spreadMethod="pad" gradientUnits="objectBoundingBox" gradientTransform="translate(0 0)"><stop id="eHJpxN4v8Z141-fill-0" offset="0%" stop-color="#020202"/><stop id="eHJpxN4v8Z141-fill-1" offset="100%" stop-color="#114e22"/></linearGradient><linearGradient id="eHJpxN4v8Z142-fill" x1="0.274249" y1="0.911126" x2="1" y2="0.155429" spreadMethod="pad" gradientUnits="objectBoundingBox" gradientTransform="translate(0 0)"><stop id="eHJpxN4v8Z142-fill-0" offset="0%" stop-color="#114e22"/><stop id="eHJpxN4v8Z142-fill-1" offset="100%" stop-color="#079094"/></linearGradient><linearGradient id="eHJpxN4v8Z143-fill" x1="0.274249" y1="0.911126" x2="1" y2="0.155429" spreadMethod="pad" gradientUnits="objectBoundingBox" gradientTransform="translate(0 0)"><stop id="eHJpxN4v8Z143-fill-0" offset="0%" stop-color="#020202"/><stop id="eHJpxN4v8Z143-fill-1" offset="100%" stop-color="#114e22"/></linearGradient><linearGradient id="eHJpxN4v8Z145-fill" x1="0.553633" y1="1.000114" x2="0.540821" y2="-4.552559" spreadMethod="pad" gradientUnits="objectBoundingBox" gradientTransform="translate(0 0)"><stop id="eHJpxN4v8Z145-fill-0" offset="0%" stop-color="rgba(0,0,0,0)"/><stop id="eHJpxN4v8Z145-fill-1" offset="17%" stop-color="#06041a"/><stop id="eHJpxN4v8Z145-fill-2" offset="66%" stop-color="#fff"/><stop id="eHJpxN4v8Z145-fill-3" offset="82.834%" stop-color="#2e709c"/><stop id="eHJpxN4v8Z145-fill-4" offset="100%" stop-color="#fff"/></linearGradient><linearGradient id="eHJpxN4v8Z151-fill" x1="0" y1="0.5" x2="1" y2="0.5" spreadMethod="pad" gradientUnits="objectBoundingBox" gradientTransform="translate(0 0)"><stop id="eHJpxN4v8Z151-fill-0" offset="16%" stop-color="#d2dbed"/><stop id="eHJpxN4v8Z151-fill-1" offset="59%" stop-color="rgba(146,148,152,0.61)"/><stop id="eHJpxN4v8Z151-fill-2" offset="100%" stop-color="rgba(45,36,18,0)"/></linearGradient><linearGradient id="eHJpxN4v8Z154-fill" x1="0" y1="0.5" x2="1" y2="0.5" spreadMethod="pad" gradientUnits="objectBoundingBox" gradientTransform="translate(0 0)"><stop id="eHJpxN4v8Z154-fill-0" offset="16%" stop-color="#d2dbed"/><stop id="eHJpxN4v8Z154-fill-1" offset="59%" stop-color="rgba(146,148,152,0.61)"/><stop id="eHJpxN4v8Z154-fill-2" offset="100%" stop-color="rgba(45,36,18,0)"/></linearGradient><linearGradient id="eHJpxN4v8Z157-fill" x1="0" y1="0.5" x2="1" y2="0.5" spreadMethod="pad" gradientUnits="objectBoundingBox" gradientTransform="translate(0 0)"><stop id="eHJpxN4v8Z157-fill-0" offset="16%" stop-color="#d2dbed"/><stop id="eHJpxN4v8Z157-fill-1" offset="59%" stop-color="rgba(146,148,152,0.61)"/><stop id="eHJpxN4v8Z157-fill-2" offset="100%" stop-color="rgba(45,36,18,0)"/></linearGradient></defs><g transform="matrix(.917458 0.397832-.397832 0.917458 881.623986-139.392131)"><path d="M1195.809283,561.312974L897.048133,292.522905l-214.97163-1.840904-159.009769-79.158813L328.616312,385.680806L252.833748,595.73369L128.229374,678.638822l537.367283,240.26563l530.212626-357.591478Z" transform="translate(.000003 0.000001)" fill="url(#eHJpxN4v8Z13-fill)" stroke="rgba(63,87,135,0)" stroke-width="3.84"/><path d="M523.066735,211.523187L665.59666,248.341242l248.521854,3.681804l386.589552,313.190773-104.898785-3.900846-298.76115-268.790069h-214.971627L523.066735,211.523187Z" transform="translate(.000002 0.000002)" fill="url(#eHJpxN4v8Z14-fill)" stroke-width="3.84"/></g><g transform="translate(68.000756-78.356826)"><path d="M661.422413,470.196934L766.447885,625.576943L1235.32062,834.81635l26.511017-60.063996-600.409224-304.55542Z" transform="matrix(.99811 0 0 0.994715 0.19045 9.467662)" fill="url(#eHJpxN4v8Z16-fill)" stroke-width="3.84"/><path d="M662.019331,478.454071L550.181659,595.733691L356.922215,625.649287L209.479607,892.601099l472.596896,81.306892l459.734663,19.412155l93.021703-156.862085L766.846304,625.649287L662.019331,478.454071Z" transform="translate(.000001 0)" fill="url(#eHJpxN4v8Z17-fill)" stroke-width="3.84"/></g><g transform="translate(-209.479614-110.28487)"><path d="M661.422413,470.196934L766.447885,625.576943L1235.32062,834.81635l26.511017-60.063996-600.409224-304.55542Z" transform="matrix(.99811 0 0 0.994715 0.19045 9.467662)" fill="url(#eHJpxN4v8Z19-fill)" stroke-width="3.84"/><path d="M662.019331,478.454071L550.181659,595.733691L356.922215,625.649287L209.479607,892.601099l472.596896,81.306892l459.734663,19.412155l93.021703-156.862085L766.846304,625.649287L662.019331,478.454071Z" transform="translate(.000001 0)" fill="url(#eHJpxN4v8Z110-fill)" stroke-width="3.84"/></g><ellipse rx="103.60856" ry="105.008675" transform="translate(1630.683934 162.179197)" opacity="0.14" fill="url(#eHJpxN4v8Z111-fill)" stroke-width="0"/><path d="M54.416988,610.934741c125.444139-27.56438,354.949178,5.26834,468.649746,47.591065c72.190129,68.900874,389.078836,3.955653,636.008531,10.278604c175.12311,53.791821,392.584665-49.25179,561.885595-74.933849c109.622703,16.700193,202.455154,118.580453,153.065167,224.854466-32.909291,153.28977-231.130159,149.152193-364.122502,149.281114-491.644761-7.749918-701.455963-2.156882-787.747289,34.425516-155.153329,65.775798-429.538393-1.210141-632.934244-74.003548C51.48479,811.860923,27.151855,688.205986,54.416988,610.934741Z" transform="matrix(.691062 0 0 0.417749 202.984271 588.044071)" opacity="0.96" filter="url(#eHJpxN4v8Z112-filter)" fill="url(#eHJpxN4v8Z112-fill)" stroke-width="3.84"/><path d="M519.796336,886.607788l-5.506426-50.027711-47.843664,33.940427l47.843664-58.335111-47.84367,14.848937l40.242779-46.66809-40.242784,13.788299l40.242785-52.861024-40.242774,8.491916l47.843663-61.017332-49.67051,23.88818c-10.750925-32.606551,46.933958-139.019402,83.170686-222.562325L614.08214,712.656279l-41.057015-24.41524l41.057015,61.544392-40.139277-28.637237l40.139272,59.218046-38.303798-30.580809l38.303799,63.460602-37.386061-31.64145l37.386061,78.468135-38.3038-38.163875-2.75321,65.964612-53.22879-1.265667Z" transform="matrix(-.751816 0 0 0.859729 1142.091979 103.963214)" fill="url(#eHJpxN4v8Z113-fill)" stroke="rgba(0,0,0,0)" stroke-width="3.84"/><g transform="matrix(1.256196 0 0 0.92124-95.692945-28.771167)"><path d="M519.796336,886.607788l-5.506426-50.027711-47.843664,33.940427l47.843664-58.335111-47.84367,14.848937l40.242779-46.66809-40.242784,13.788299l40.242785-52.861024-40.242774,8.491916l47.843663-61.017332-49.67051,23.88818l83.170686-222.562325L614.08214,712.656279l-41.057015-24.41524l41.057015,61.544392-40.139277-28.637237l40.139272,59.218046-38.303798-30.580809l38.303799,63.460602-37.386061-31.64145l37.386061,78.468135-38.3038-38.163875-2.75321,65.964612-53.22879-1.265667Z" transform="matrix(.551023 0 0 0.828263 138.506509 347.545032)" fill="url(#eHJpxN4v8Z115-fill)" stroke="rgba(0,0,0,0)" stroke-width="3.84"/><path d="M575.740508,885.667941l-1.848237-110.8942-33.268261,31.420024l31.420023-101.653017-35.116496,40.661206l31.420023-92.411835-31.420023,36.964734l29.571786-92.411834-31.420023,27.72355l29.571787-84.148135-27.72355,17.611614l83.17065-205.154271L701.4206,549.288864l-18.482367-9.288868l20.330604,68.432441-18.482368-11.08942l25.875312,73.929467-22.17884-24.027077l25.875314,81.322414-24.027078-25.875314l25.875312,101.653017-27.723551-31.420023-.000001,105.34949-112.742429,7.39295Z" transform="matrix(.551023 0 0 0.828263-.123764 302.759018)" fill="url(#eHJpxN4v8Z116-fill)" stroke="rgba(0,0,0,0)" stroke-width="3.84"/><path d="M575.740508,885.667941l-1.848237-110.8942-33.268261,31.420024l31.420023-101.653017-35.116496,40.661206l31.420023-92.411835-31.420023,36.964734l29.571786-92.411834-31.420023,27.72355l29.571787-84.148135-27.72355,17.611614l83.17065-205.154271L701.4206,549.288864l-18.482367-9.288868l20.330604,68.432441-18.482368-11.08942l25.875312,73.929467-22.17884-24.027077l25.875314,81.322414-24.027078-25.875314l25.875312,101.653017-27.723551-31.420023-.000001,105.34949-112.742429,7.39295Z" transform="matrix(.551023 0 0 0.828263-166.380263 405.077708)" fill="url(#eHJpxN4v8Z117-fill)" stroke="rgba(0,0,0,0)" stroke-width="3.84"/><path d="M519.796336,886.607788l-5.506426-50.027711-47.843664,33.940427l47.843664-58.335111-47.84367,14.848937l40.242779-46.66809-40.242784,13.788299l40.242785-52.861024-40.242774,8.491916l47.843663-61.017332-49.67051,23.88818l83.170686-222.562325L614.08214,712.656279l-41.057015-24.41524l41.057015,61.544392-40.139277-28.637237l40.139272,59.218046-38.303798-30.580809l38.303799,63.460602-37.386061-31.64145l37.386061,78.468135-38.3038-38.163875-2.75321,65.964612-53.22879-1.265667Z" transform="matrix(.551023 0 0 0.828263-35.43487 339.458651)" fill="url(#eHJpxN4v8Z118-fill)" stroke="rgba(0,0,0,0)" stroke-width="3.84"/><path d="M519.796336,886.607788l-5.506426-50.027711-47.843664,33.940427l47.843664-58.335111-47.84367,14.848937l40.242779-46.66809-40.242784,13.788299l40.242785-52.861024-40.242774,8.491916l47.843663-61.017332-49.67051,23.88818l83.170686-222.562325L614.08214,712.656279l-41.057015-24.41524l41.057015,61.544392-40.139277-28.637237l40.139272,59.218046-38.303798-30.580809l38.303799,63.460602-37.386061-31.64145l37.386061,78.468135-38.3038-38.163875-2.75321,65.964612-53.22879-1.265667Z" transform="matrix(.551023 0 0 0.828263 62.328292 339.458651)" fill="url(#eHJpxN4v8Z119-fill)" stroke="rgba(0,0,0,0)" stroke-width="3.84"/><path d="M519.796336,886.607788l-5.506426-50.027711-47.843664,33.940427l47.843664-58.335111-47.84367,14.848937l40.242779-46.66809-40.242784,13.788299l40.242785-52.861024-40.242774,8.491916l47.843663-61.017332-49.67051,23.88818l83.170686-222.562325L614.08214,712.656279l-41.057015-24.41524l41.057015,61.544392-40.139277-28.637237l40.139272,59.218046-38.303798-30.580809l38.303799,63.460602-37.386061-31.64145l37.386061,78.468135-38.3038-38.163875-2.75321,65.964612-53.22879-1.265667Z" transform="matrix(.551023 0 0 0.828263 103.506996 339.458651)" fill="url(#eHJpxN4v8Z120-fill)" stroke="rgba(0,0,0,0)" stroke-width="3.84"/><path d="M519.796336,886.607788l-5.506426-50.027711-47.843664,33.940427l47.843664-58.335111-47.84367,14.848937l40.242779-46.66809-40.242784,13.788299l40.242785-52.861024-40.242774,8.491916l47.843663-61.017332-49.67051,23.88818c-10.750925-32.606551,46.933958-139.019402,83.170686-222.562325L614.08214,712.656279l-41.057015-24.41524l41.057015,61.544392-40.139277-28.637237l40.139272,59.218046-38.303798-30.580809l38.303799,63.460602-37.386061-31.64145l37.386061,78.468135-38.3038-38.163875-2.75321,65.964612-53.22879-1.265667Z" transform="matrix(.551023 0 0 0.828263 221.11729 346.795015)" fill="url(#eHJpxN4v8Z121-fill)" stroke="rgba(0,0,0,0)" stroke-width="3.84"/><path d="M519.796336,886.607788l-5.506426-50.027711-47.843664,33.940427l47.843664-58.335111-47.84367,14.848937l40.242779-46.66809-40.242784,13.788299l40.242785-52.861024-40.242774,8.491916l47.843663-61.017332-49.67051,23.88818c-10.750925-32.606551,46.933958-139.019402,83.170686-222.562325L614.08214,712.656279l-41.057015-24.41524l41.057015,61.544392-40.139277-28.637237l40.139272,59.218046-38.303798-30.580809l38.303799,63.460602-37.386061-31.64145l37.386061,78.468135-38.3038-38.163875-2.75321,65.964612-53.22879-1.265667Z" transform="matrix(.551023 0 0 0.828263 294.863118 339.458651)" fill="url(#eHJpxN4v8Z122-fill)" stroke="rgba(0,0,0,0)" stroke-width="3.84"/><path d="M519.796336,886.607788l-5.506426-50.027711-47.843664,33.940427l47.843664-58.335111-47.84367,14.848937l40.242779-46.66809-40.242784,13.788299l40.242785-52.861024-40.242774,8.491916l47.843663-61.017332-49.67051,23.88818c-10.750925-32.606551,46.933958-139.019402,83.170686-222.562325L614.08214,712.656279l-41.057015-24.41524l41.057015,61.544392-40.139277-28.637237l40.139272,59.218046-38.303798-30.580809l38.303799,63.460602-37.386061-31.64145l37.386061,78.468135-38.3038-38.163875-2.75321,65.964612-53.22879-1.265667Z" transform="matrix(.551023 0 0 0.828263 144.939073 310.890942)" fill="url(#eHJpxN4v8Z123-fill)" stroke="rgba(0,0,0,0)" stroke-width="3.84"/><path d="M519.796336,886.607788l-5.506426-50.027711-47.843664,33.940427l47.843664-58.335111-47.84367,14.848937l40.242779-46.66809-40.242784,13.788299l40.242785-52.861024-40.242774,8.491916l47.843663-61.017332-49.67051,23.88818c-10.750925-32.606551,46.933958-139.019402,83.170686-222.562325L614.08214,712.656279l-41.057015-24.41524l41.057015,61.544392-40.139277-28.637237l40.139272,59.218046-38.303798-30.580809l38.303799,63.460602-37.386061-31.64145l37.386061,78.468135-38.3038-38.163875-2.75321,65.964612-53.22879-1.265667Z" transform="matrix(.551023 0 0 0.828263 967.922215 283.821238)" fill="url(#eHJpxN4v8Z124-fill)" stroke="rgba(0,0,0,0)" stroke-width="3.84"/><path d="M519.796336,886.607788l-5.506426-50.027711-47.843664,33.940427l47.843664-58.335111-47.84367,14.848937l40.242779-46.66809-40.242784,13.788299l40.242785-52.861024-40.242774,8.491916l47.843663-61.017332-49.67051,23.88818l83.170686-222.562325L614.08214,712.656279l-41.057015-24.41524l41.057015,61.544392-40.139277-28.637237l40.139272,59.218046-38.303798-30.580809l38.303799,63.460602-37.386061-31.64145l37.386061,78.468135-38.3038-38.163875-2.75321,65.964612-53.22879-1.265667Z" transform="matrix(.551023 0 0 0.828263 33.751245 319.84572)" fill="url(#eHJpxN4v8Z125-fill)" stroke="rgba(0,0,0,0)" stroke-width="3.84"/><path d="M519.796336,886.607788l-5.506426-50.027711-47.843664,33.940427l47.843664-58.335111-47.84367,14.848937l40.242779-46.66809-40.242784,13.788299l40.242785-52.861024-40.242774,8.491916l47.843663-61.017332-49.67051,23.88818l83.170686-222.562325L614.08214,712.656279l-41.057015-24.41524l41.057015,61.544392-40.139277-28.637237l40.139272,59.218046-38.303798-30.580809l38.303799,63.460602-37.386061-31.64145l37.386061,78.468135-38.3038-38.163875-2.75321,65.964612-53.22879-1.265667Z" transform="matrix(.551023 0 0 0.828263 631.06056 238.517941)" fill="url(#eHJpxN4v8Z126-fill)" stroke="rgba(0,0,0,0)" stroke-width="3.84"/><path d="M519.796336,886.607788l-5.506426-50.027711-47.843664,33.940427l47.843664-58.335111-47.84367,14.848937l40.242779-46.66809-40.242784,13.788299l40.242785-52.861024-40.242774,8.491916l47.843663-61.017332-49.67051,23.88818l83.170686-222.562325L614.08214,712.656279l-41.057015-24.41524l41.057015,61.544392-40.139277-28.637237l40.139272,59.218046-38.303798-30.580809l38.303799,63.460602-37.386061-31.64145l37.386061,78.468135-38.3038-38.163875-2.75321,65.964612-53.22879-1.265667Z" transform="matrix(.551023 0 0 0.828263 1023.558134 291.839101)" fill="url(#eHJpxN4v8Z127-fill)" stroke="rgba(0,0,0,0)" stroke-width="3.84"/><path d="M519.796336,886.607788l-5.506426-50.027711-47.843664,33.940427l47.843664-58.335111-47.84367,14.848937l40.242779-46.66809-40.242784,13.788299l40.242785-52.861024-40.242774,8.491916l47.843663-61.017332-49.67051,23.88818l83.170686-222.562325L614.08214,712.656279l-41.057015-24.41524l41.057015,61.544392-40.139277-28.637237l40.139272,59.218046-38.303798-30.580809l38.303799,63.460602-37.386061-31.64145l37.386061,78.468135-38.3038-38.163875-2.75321,65.964612-53.22879-1.265667Z" transform="matrix(.551023 0 0 0.828263 1079.517542 245.226341)" fill="url(#eHJpxN4v8Z128-fill)" stroke="rgba(0,0,0,0)" stroke-width="3.84"/><path d="M564.651086,1174.636962l.000003-403.246197-96.352594,77.075686L564.65109,715.99261l-96.352607,33.720614l81.045134-105.979073-81.045144,31.311998l81.045146-120.042677-81.045123,19.284386l96.352591-138.564925-100.031688,54.24793L632.11726,-15.448347l133.5059,505.41921-82.684927-55.444835l82.684927,139.76183-80.836691-65.032614l80.836682,134.478907-77.14021-69.446293l77.140211,144.113373-75.291975-71.854914l75.291976,178.194142-77.140215-86.66676l1.848239,436.563263h-125.680091Z" transform="matrix(.368358 0 0 0.49242 701.670395 556.300777)" paint-order="markers fill stroke" fill="url(#eHJpxN4v8Z129-fill)" stroke="rgba(0,0,0,0)" stroke-width="3.84"/><path d="M575.740508,884.999237L564.651089,771.390765l-96.352594,77.075686L564.65109,715.99261l-96.352607,33.720614l81.045134-105.979073-81.045144,31.311998l81.045146-120.042677-81.045123,19.284386l96.352591-138.564925-100.031688,54.24793L632.11726,-15.448347l133.5059,505.41921-82.684927-55.444835l82.684927,139.76183-80.836691-65.032614l80.836682,134.478907-77.14021-69.446293l77.140211,144.113373-75.291975-71.854914l75.291976,178.194142-77.140215-86.66676-5.544704,149.799756-107.197726-2.874218Z" transform="matrix(.355068 0 0 0.454162-10.088474 581.668925)" fill="url(#eHJpxN4v8Z130-fill)" stroke="rgba(0,0,0,0)" stroke-width="3.84"/><path d="M519.796336,886.607788l-5.506426-50.027711-47.843664,33.940427l47.843664-58.335111-47.84367,14.848937l40.242779-46.66809-40.242784,13.788299l40.242785-52.861024-40.242774,8.491916l47.843663-61.017332-49.67051,23.88818l83.170686-222.562325L614.08214,712.656279l-41.057015-24.41524l41.057015,61.544392-40.139277-28.637237l40.139272,59.218046-38.303798-30.580809l38.303799,63.460602-37.386061-31.64145l37.386061,78.468135-38.3038-38.163875-2.75321,65.964612-53.22879-1.265667Z" transform="matrix(.551023 0 0 0.828263 1213.94322 393.370696)" fill="url(#eHJpxN4v8Z131-fill)" stroke="rgba(0,0,0,0)" stroke-width="3.84"/><path d="M-9.257249,914.532497C114.1464,799.817154,274.430826,791.322318,413.577683,791.322318c212.817581,0,474.857339,172.25785,621.651356,201.616655c112.009255,22.401852,637.418079,104.744847,943.677962-179.214805l30.128741,476.190764L-9.257249,1247.760026v-333.227529Z" transform="matrix(.468107 0 0 0.540932 363.856354 349.616678)" opacity="0.16" filter="url(#eHJpxN4v8Z132-filter)" fill="url(#eHJpxN4v8Z132-fill)" stroke="rgba(49,64,92,0)" stroke-width="3.84"/><path d="M575.740508,885.667941l-11.089419-87.176787-96.352594,59.14357L564.65109,755.981708l-96.352607,25.875313l81.045134-81.322413-81.045144,24.027076l81.045146-92.114036-81.045123,14.797759l96.352591-106.326973-100.031688,41.626827L632.11726,194.714829l133.5059,387.830432-82.684927-42.545265L765.62316,647.245407l-80.836691-49.90239l80.836682,103.191591-77.14021-53.289201l77.140211,110.584542-75.291975-55.137442l75.291976,136.736218-77.140215-66.503224-5.544704,114.947954-107.197726-2.205514Z" transform="matrix(.551023 0 0 0.828263 1089.261929 409.959363)" fill="url(#eHJpxN4v8Z133-fill)" stroke="rgba(0,0,0,0)" stroke-width="3.84"/><path d="M575.740508,884.999237L564.651089,771.390765l-96.352594,77.075686L564.65109,715.99261l-96.352607,33.720614l81.045134-105.979073-81.045144,31.311998l81.045146-120.042677-81.045123,19.284386l81.045123-129.27085-84.72422,44.953855L632.11726,-15.448347l133.5059,505.41921-82.684927-55.444835l82.684927,139.76183-80.836691-65.032614l80.836682,134.478907-77.14021-69.446293l77.140211,144.113373-75.291975-71.854914l75.291976,178.194142-77.140215-86.66676-5.544704,149.799756-107.197726-2.874218Z" transform="matrix(.801471 0 0 0.620227 590.809743 487.350015)" fill="url(#eHJpxN4v8Z134-fill)" stroke="rgba(0,0,0,0)" stroke-width="3.84"/><path d="M564.651086,1174.636962l.000003-403.246197-96.352594,77.075686L564.65109,715.99261l-96.352607,33.720614l81.045134-105.979073-81.045144,31.311998l81.045146-120.042677-81.045123,19.284386l96.352591-138.564925-100.031688,54.24793L632.11726,-15.448347l133.5059,505.41921-82.684927-55.444835l82.684927,139.76183-80.836691-65.032614l80.836682,134.478907-77.14021-69.446293l77.140211,144.113373-75.291975-71.854914l75.291976,178.194142-77.140215-86.66676l1.848239,436.563263h-125.680091Z" transform="matrix(.443982 0 0 0.58004 112.061617 353.560045)" fill="url(#eHJpxN4v8Z135-fill)" stroke="rgba(0,0,0,0)" stroke-width="3.84"/></g><path d="M519.796336,886.607788l-5.506426-50.027711-47.843664,33.940427l47.843664-58.335111-47.84367,14.848937l40.242779-46.66809-40.242784,13.788299l40.242785-52.861024-40.242774,8.491916l47.843663-61.017332-49.67051,23.88818c-10.750925-32.606551,46.933958-139.019402,83.170686-222.562325L614.08214,712.656279l-41.057015-24.41524l41.057015,61.544392-40.139277-28.637237l40.139272,59.218046-38.303798-30.580809l38.303799,63.460602-37.386061-31.64145l37.386061,78.468135-38.3038-38.163875-2.75321,65.964612-53.22879-1.265667Z" transform="matrix(.551023 0 0 0.828263 691.678084 153.89929)" fill="url(#eHJpxN4v8Z136-fill)" stroke="rgba(0,0,0,0)" stroke-width="3.84"/><path d="M519.796336,886.607788l-5.506426-50.027711-47.843664,33.940427l47.843664-58.335111-47.84367,14.848937l40.242779-46.66809-40.242784,13.788299l40.242785-52.861024-40.242774,8.491916l47.843663-61.017332-49.67051,23.88818c-10.750925-32.606551,46.933958-139.019402,83.170686-222.562325L614.08214,712.656279l-41.057015-24.41524l41.057015,61.544392-40.139277-28.637237l40.139272,59.218046-38.303798-30.580809l38.303799,63.460602-37.386061-31.64145l37.386061,78.468135-38.3038-38.163875-2.75321,65.964612-53.22879-1.265667Z" transform="matrix(.551023 0 0 0.828263 531.728911 125.642775)" fill="url(#eHJpxN4v8Z137-fill)" stroke="rgba(0,0,0,0)" stroke-width="3.84"/><path d="M-24.689874,1005.590385c63.082643-2.006075,512.801625-20.457853,957.849211,60.274257c573.398731,90.004135,802.786645-69.188601,1028.291887-60.929803l-17.125462,189.350891-2005.005617-11.065153l35.989981-177.630192Z" transform="matrix(1 0 0 1.391115 8.134174-604.199446)" fill="url(#eHJpxN4v8Z138-fill)" stroke-width="3.84"/><g transform="matrix(.725689 0 0 0.687317 63.008148 251.147741)" opacity="0.85" filter="url(#eHJpxN4v8Z139-filter)"><path d="M355.059044,924.839609l-8.673012-66.318265-30.712579-7.521944v-23.518512l30.712579-9.455996l53.73213,13.20445-11.701753,14.529255-25.255265,5.240801-6.238929,27.644197-1.863171,46.196014Z" transform="translate(-130.816949-75.474589)" fill="url(#eHJpxN4v8Z140-fill)" stroke-width="3.84"/><path d="M355.059044,924.839609l-8.673012-66.318265-30.712579-7.521944v-23.518512l30.712579-9.455996l53.73213,13.20445-11.701753,14.529255-25.255265,5.240801-6.238929,27.644197-1.863171,46.196014Z" transform="matrix(.55311 0 0 0.319921-30.740299 536.691868)" fill="url(#eHJpxN4v8Z141-fill)" stroke-width="3.84"/><path d="M355.059044,924.839609l-8.673012-66.318265-30.712579-7.521944v-23.518512l30.712579-9.455996l53.73213,13.20445-11.701753,14.529255-25.255265,5.240801-6.238929,27.644197-1.863171,46.196014Z" transform="matrix(.702949 0 0 0.711661 20.395235 191.192739)" fill="url(#eHJpxN4v8Z142-fill)" stroke-width="3.84"/><path d="M355.059044,924.839609l-8.673012-66.318265-30.712579-7.521944v-23.518512l30.712579-9.455996l53.73213,13.20445-11.701753,14.529255-25.255265,5.240801-6.238929,27.644197-1.863171,46.196014Z" transform="matrix(.553109 0 0 0.319921-7.386377 550.97149)" fill="url(#eHJpxN4v8Z143-fill)" stroke-width="3.84"/></g><polygon points="0,-192 1.357645,-1.357645 192,0 1.357645,1.357645 0,192 -1.357645,1.357645 -192,0 -1.357645,-1.357645 0,-192" transform="matrix(.121655 0 0 0.118514 657.057441 124.061361)" fill="#d2dbed" stroke-width="0"/><path d="M-24.689874,1005.590385c63.082643-2.006075,512.801625-20.457853,957.849211,60.274257c573.398731,90.004135,802.786645-69.188601,1028.291887-60.929803l-17.125462,189.350891-2005.005617-11.065153l35.989981-177.630192Z" transform="matrix(1 0 0 1.391115 8.134174-551.666295)" fill="url(#eHJpxN4v8Z145-fill)" stroke-width="3.84"/><polygon points="0,-192 1.357645,-1.357645 192,0 1.357645,1.357645 0,192 -1.357645,1.357645 -192,0 -1.357645,-1.357645 0,-192" transform="matrix(.121655 0 0 0.118514 581.812014 277.4165)" fill="#d2dbed" stroke-width="0"/><polygon points="0,-192 1.357645,-1.357645 192,0 1.357645,1.357645 0,192 -1.357645,1.357645 -192,0 -1.357645,-1.357645 0,-192" transform="matrix(.121655 0 0 0.118514 1298.573305 63.397636)" fill="#d2dbed" stroke-width="0"/><polygon points="0,-192 1.357645,-1.357645 192,0 1.357645,1.357645 0,192 -1.357645,1.357645 -192,0 -1.357645,-1.357645 0,-192" transform="matrix(.121655 0 0 0.118514 208.214264 78.551985)" fill="#d2dbed" stroke-width="0"/><g transform="matrix(.836225-.548386 0.548386 0.836225 64.451756 529.028237)" opacity="0.1"><ellipse rx="8.283797" ry="9.792359" transform="matrix(1.152538 0 0 0.999999 849.549377 156.608408)" fill="#d2dbed" stroke-width="0"/><rect width="146.308122" height="14.649155" rx="0" ry="0" transform="matrix(1 0 0 1.336917 849.549377 146.816056)" fill="url(#eHJpxN4v8Z151-fill)" stroke-width="0"/></g><g transform="matrix(.836225-.548386 0.548386 0.836225 924.642144 773.860453)" opacity="0.1"><ellipse rx="8.283797" ry="9.792359" transform="matrix(1.152538 0 0 0.999999 849.549377 156.608408)" fill="#d2dbed" stroke-width="0"/><rect width="146.308122" height="14.649155" rx="0" ry="0" transform="matrix(1 0 0 1.336917 849.549377 146.816056)" fill="url(#eHJpxN4v8Z154-fill)" stroke-width="0"/></g><g transform="matrix(.836225-.548386 0.548386 0.836225-569.020278 537.216843)" opacity="0.1"><ellipse rx="8.283797" ry="9.792359" transform="matrix(1.152538 0 0 0.999999 849.549377 156.608408)" fill="#d2dbed" stroke-width="0"/><rect width="146.308122" height="14.649155" rx="0" ry="0" transform="matrix(1 0 0 1.336917 849.549377 146.816056)" fill="url(#eHJpxN4v8Z157-fill)" stroke-width="0"/></g></svg>
