<svg id="eEoXZNjcs7h1" xmlns="http://www.w3.org/2000/svg" xmlns:xlink="http://www.w3.org/1999/xlink" viewBox="0 0 1440 645" shape-rendering="geometricPrecision" text-rendering="geometricPrecision"><defs><linearGradient id="eEoXZNjcs7h2-fill" x1="719.79" y1="0" x2="719.79" y2="641.762" spreadMethod="pad" gradientUnits="userSpaceOnUse" gradientTransform="translate(0 0)"><stop id="eEoXZNjcs7h2-fill-0" offset="0%" stop-color="rgba(71,80,104,0.57)"/><stop id="eEoXZNjcs7h2-fill-1" offset="100%" stop-color="#1e1357"/></linearGradient><linearGradient id="eEoXZNjcs7h3-fill" x1="719.79" y1="0" x2="715.472392" y2="233.169946" spreadMethod="pad" gradientUnits="userSpaceOnUse" gradientTransform="translate(0 0)"><stop id="eEoXZNjcs7h3-fill-0" offset="0%" stop-color="#000"/><stop id="eEoXZNjcs7h3-fill-1" offset="100%" stop-color="rgba(30,19,87,0.88)"/></linearGradient></defs><path d="M956.74,70.6527c-212.802-81.8928-243.14-84.9027-343-48-99.861,36.9028-157.473,34.4492-322.861,15.9031s-253.0165,5.0777-332.139,24.8583c0,87.9329-.0005,581.5859-.0005,581.5859h1522.1005l-4.1-602.3441c0,0-306.81,110.0401-520,27.9968Z" transform="matrix(1.987132 0.092429-.074043 1.591861 66.143821 247.241645)" fill="url(#eEoXZNjcs7h2-fill)"/><path d="M956.74,70.6527c-212.802-81.8928-243.14-84.9027-343-48-99.861,36.9028-157.473,34.4492-322.861,15.9031s-253.0165,5.0777-332.139,24.8583c0,87.9329-.0005,581.5859-.0005,581.5859h1522.1005l-4.1-602.3441c0,0-306.81,110.0401-520,27.9968Z" transform="matrix(2.071795-.14228 0.068513 0.99765-513.578504 447.776881)" fill="url(#eEoXZNjcs7h3-fill)"/></svg>
