<svg id="ekZJjzRAlh51" xmlns="http://www.w3.org/2000/svg" xmlns:xlink="http://www.w3.org/1999/xlink" viewBox="0 0 1920 1080" shape-rendering="geometricPrecision" text-rendering="geometricPrecision"><line x1="49.069463" y1="-35.229358" x2="-49.069462" y2="35.229358" transform="translate(761.205767 721.305377)" opacity="0.25" fill="none" stroke="#3f5787" stroke-width="3"/><line x1="49.069463" y1="-35.229358" x2="-49.069462" y2="35.229358" transform="translate(580.026212 291.003932)" opacity="0.25" fill="none" stroke="#3f5787" stroke-width="3"/><line x1="49.069463" y1="-35.229358" x2="-49.069462" y2="35.229358" transform="translate(1423.014417 396.692005)" opacity="0.25" fill="none" stroke="#3f5787" stroke-width="3"/><line x1="49.069463" y1="-35.229358" x2="-49.069462" y2="35.229358" transform="translate(134.626476 791.764093)" opacity="0.25" fill="none" stroke="#3f5787" stroke-width="3"/><line x1="49.069463" y1="-35.229358" x2="-49.069462" y2="35.229358" transform="translate(761.205767 721.305377)" opacity="0.42" fill="none" stroke="#3f5787" stroke-width="3"/><line x1="49.069463" y1="-35.229358" x2="-49.069462" y2="35.229358" transform="translate(1669.619921 905.001311)" opacity="0.4" fill="none" stroke="#3f5787" stroke-width="3"/><polygon points="0,-192 11.285477,-15.533126 182.602851,-59.331263 18.260285,5.933126 112.854768,155.331263 0,19.2 -112.854768,155.331263 -18.260285,5.933126 -182.602851,-59.331263 -11.285477,-15.533126 0,-192" transform="matrix(.111708 0 0 0.114909 430.916335 218.852589)" fill="#d2dbed" stroke-width="0"/><polygon points="0,-192 11.285477,-15.533126 182.602851,-59.331263 18.260285,5.933126 112.854768,155.331263 0,19.2 -112.854768,155.331263 -18.260285,5.933126 -182.602851,-59.331263 -11.285477,-15.533126 0,-192" transform="matrix(.111708 0 0 0.114909 360.731027 475.082432)" fill="#d2dbed" stroke-width="0"/><polygon points="0,-192 11.285477,-15.533126 182.602851,-59.331263 18.260285,5.933126 112.854768,155.331263 0,19.2 -112.854768,155.331263 -18.260285,5.933126 -182.602851,-59.331263 -11.285477,-15.533126 0,-192" transform="matrix(.111708 0 0 0.114909 1110.478244 163.69174)" fill="#d2dbed" stroke-width="0"/><polygon points="0,-192 11.285477,-15.533126 182.602851,-59.331263 18.260285,5.933126 112.854768,155.331263 0,19.2 -112.854768,155.331263 -18.260285,5.933126 -182.602851,-59.331263 -11.285477,-15.533126 0,-192" transform="matrix(.111708 0 0 0.114909 580.026213 143.735996)" fill="#d2dbed" stroke-width="0"/><polygon points="0,-192 11.285477,-15.533126 182.602851,-59.331263 18.260285,5.933126 112.854768,155.331263 0,19.2 -112.854768,155.331263 -18.260285,5.933126 -182.602851,-59.331263 -11.285477,-15.533126 0,-192" transform="matrix(.111708 0 0 0.114909 910.696543 465.957428)" fill="#d2dbed" stroke-width="0"/><polygon points="0,-192 11.285477,-15.533126 182.602851,-59.331263 18.260285,5.933126 112.854768,155.331263 0,19.2 -112.854768,155.331263 -18.260285,5.933126 -182.602851,-59.331263 -11.285477,-15.533126 0,-192" transform="matrix(.111708 0 0 0.114909 1247.285612 343.613687)" fill="#d2dbed" stroke-width="0"/><polygon points="0,-192 11.285477,-15.533126 182.602851,-59.331263 18.260285,5.933126 112.854768,155.331263 0,19.2 -112.854768,155.331263 -18.260285,5.933126 -182.602851,-59.331263 -11.285477,-15.533126 0,-192" transform="matrix(.111708 0 0 0.114909 1402.616219 723.412161)" fill="#d2dbed" stroke-width="0"/><polygon points="0,-192 11.285477,-15.533126 182.602851,-59.331263 18.260285,5.933126 112.854768,155.331263 0,19.2 -112.854768,155.331263 -18.260285,5.933126 -182.602851,-59.331263 -11.285477,-15.533126 0,-192" transform="matrix(.111708 0 0 0.114909 1789.640896 143.735996)" fill="#d2dbed" stroke-width="0"/></svg>
