<svg id="eQSZcrEfWIq1" xmlns="http://www.w3.org/2000/svg" xmlns:xlink="http://www.w3.org/1999/xlink" viewBox="0 0 1920 1080" shape-rendering="geometricPrecision" text-rendering="geometricPrecision"><defs><linearGradient id="eQSZcrEfWIq2-fill" x1="0.5" y1="0.68" x2="0.851351" y2="0.16" spreadMethod="pad" gradientUnits="objectBoundingBox" gradientTransform="translate(0 0)"><stop id="eQSZcrEfWIq2-fill-0" offset="0%" stop-color="#d2dbed"/><stop id="eQSZcrEfWIq2-fill-1" offset="100%" stop-color="#2d2412"/></linearGradient><linearGradient id="eQSZcrEfWIq3-fill" x1="0.522253" y1="0.828107" x2="0.523194" y2="-0.291822" spreadMethod="pad" gradientUnits="objectBoundingBox" gradientTransform="translate(0 0)"><stop id="eQSZcrEfWIq3-fill-0" offset="0%" stop-color="rgba(198,153,49,0)"/><stop id="eQSZcrEfWIq3-fill-1" offset="11%" stop-color="rgba(58,143,143,0)"/><stop id="eQSZcrEfWIq3-fill-2" offset="44%" stop-color="rgba(37,168,178,0.18)"/><stop id="eQSZcrEfWIq3-fill-3" offset="91%" stop-color="#08cbe4"/><stop id="eQSZcrEfWIq3-fill-4" offset="100%" stop-color="#093451"/></linearGradient><linearGradient id="eQSZcrEfWIq10-fill" x1="0" y1="0.5" x2="1" y2="0.5" spreadMethod="pad" gradientUnits="objectBoundingBox" gradientTransform="translate(0 0)"><stop id="eQSZcrEfWIq10-fill-0" offset="0%" stop-color="#d2dbed"/><stop id="eQSZcrEfWIq10-fill-1" offset="49%" stop-color="rgba(129,129,130,0.74)"/><stop id="eQSZcrEfWIq10-fill-2" offset="100%" stop-color="rgba(45,36,18,0)"/></linearGradient><linearGradient id="eQSZcrEfWIq13-fill" x1="0" y1="0.5" x2="1" y2="0.5" spreadMethod="pad" gradientUnits="objectBoundingBox" gradientTransform="translate(0 0)"><stop id="eQSZcrEfWIq13-fill-0" offset="0%" stop-color="#d2dbed"/><stop id="eQSZcrEfWIq13-fill-1" offset="49%" stop-color="rgba(129,129,130,0.74)"/><stop id="eQSZcrEfWIq13-fill-2" offset="100%" stop-color="rgba(45,36,18,0)"/></linearGradient><linearGradient id="eQSZcrEfWIq16-fill" x1="0" y1="0.5" x2="1" y2="0.5" spreadMethod="pad" gradientUnits="objectBoundingBox" gradientTransform="translate(0 0)"><stop id="eQSZcrEfWIq16-fill-0" offset="0%" stop-color="#d2dbed"/><stop id="eQSZcrEfWIq16-fill-1" offset="49%" stop-color="rgba(129,129,130,0.74)"/><stop id="eQSZcrEfWIq16-fill-2" offset="100%" stop-color="rgba(45,36,18,0)"/></linearGradient></defs><ellipse rx="103.60856" ry="105.008675" transform="translate(1598.252709 169.246941)" opacity="0.14" fill="url(#eQSZcrEfWIq2-fill)" stroke-width="0"/><path d="M-20.137937,522.497607c426.123059-455.79781,1472.528684,454.556626,1944.452039-23.169065q13.538786,631.118646,11.604674,631.118646t-1155.41838,0L298.914248,1173.16854L0,1101.318994L-20.137937,522.497607Z" fill="url(#eQSZcrEfWIq3-fill)" stroke-width="3.84"/><polygon points="0,-202.701888 11.46655,-11.46655 202.701888,0 11.46655,11.46655 0,202.701888 -11.46655,11.46655 -202.701888,0 -11.46655,-11.46655 0,-202.701888" transform="matrix(-.088678-.073029 0.077874-.094561 716.088207 203.217641)" fill="#d2dbed" stroke-width="0"/><polygon points="0,-202.701888 11.46655,-11.46655 202.701888,0 11.46655,11.46655 0,202.701888 -11.46655,11.46655 -202.701888,0 -11.46655,-11.46655 0,-202.701888" transform="matrix(-.088678-.073029 0.077874-.094561 312.438756 291.261985)" fill="#d2dbed" stroke-width="0"/><polygon points="0,-202.701888 11.46655,-11.46655 202.701888,0 11.46655,11.46655 0,202.701888 -11.46655,11.46655 -202.701888,0 -11.46655,-11.46655 0,-202.701888" transform="matrix(-.088678-.073029 0.077874-.094561 1260.608608 487.668597)" fill="#d2dbed" stroke-width="0"/><polygon points="0,-202.701888 11.46655,-11.46655 202.701888,0 11.46655,11.46655 0,202.701888 -11.46655,11.46655 -202.701888,0 -11.46655,-11.46655 0,-202.701888" transform="matrix(-.088678-.073029 0.077874-.094561 1344.589366 121.94594)" fill="#d2dbed" stroke-width="0"/><g transform="matrix(.704021-.388214 0.327483 0.593885 191.48315 479.963705)" opacity="0.1"><ellipse rx="38.604059" ry="36.620637" transform="translate(838.153845 273.808978)" fill="#d2dbed" stroke-width="0"/><rect width="269.551144" height="73.241274" rx="0" ry="0" transform="translate(830.703938 237.188341)" fill="url(#eQSZcrEfWIq10-fill)" stroke-width="0"/></g><g transform="matrix(.704021-.388214 0.327483 0.593885 721.989318 727.794019)" opacity="0.1"><ellipse rx="38.604059" ry="36.620637" transform="translate(838.153845 273.808978)" fill="#d2dbed" stroke-width="0"/><rect width="269.551144" height="73.241274" rx="0" ry="0" transform="translate(830.703938 237.188341)" fill="url(#eQSZcrEfWIq13-fill)" stroke-width="0"/></g><g transform="matrix(.704021-.388214 0.327483 0.593885-511.793019 333.619399)" opacity="0.1"><ellipse rx="38.604059" ry="36.620637" transform="translate(838.153845 273.808978)" fill="#d2dbed" stroke-width="0"/><rect width="269.551144" height="73.241274" rx="0" ry="0" transform="translate(830.703938 237.188341)" fill="url(#eQSZcrEfWIq16-fill)" stroke-width="0"/></g></svg>
