<svg id="eUqvQjegIpt1" xmlns="http://www.w3.org/2000/svg" xmlns:xlink="http://www.w3.org/1999/xlink" viewBox="0 0 300 300" shape-rendering="geometricPrecision" text-rendering="geometricPrecision" width="300" height="300"><defs><linearGradient id="eUqvQjegIpt17-fill" x1="0.618284" y1="0.534031" x2="0.485931" y2="1.055425" spreadMethod="pad" gradientUnits="objectBoundingBox" gradientTransform="translate(0 0)"><stop id="eUqvQjegIpt17-fill-0" offset="0%" stop-color="#b32d13"/><stop id="eUqvQjegIpt17-fill-1" offset="100%" stop-color="rgba(4,26,30,0.88)"/></linearGradient></defs><g transform="translate(-12.775528 3.533458)"><rect width="240.239044" height="25.896414" rx="0" ry="0" transform="matrix(.75987 0 0 1 71.901661 193.844622)" fill="#d2dbed" stroke-width="0"/><ellipse rx="35.258964" ry="34.661355" transform="translate(68.778142 185.079681)" fill="#d2dbed" stroke-width="0"/><ellipse rx="35.258964" ry="34.661355" transform="matrix(1.627121 0 0 1.5977 121.44563 147.38494)" fill="#d2dbed" stroke-width="0"/><ellipse rx="35.258964" ry="34.661355" transform="matrix(.913056 0 0 1.097429 75.608219 155.806246)" fill="#d2dbed" stroke-width="0"/><ellipse rx="35.258964" ry="34.661355" transform="matrix(1.627121 0 0 1.5977 207.370601 164.362589)" fill="#d2dbed" stroke-width="0"/><ellipse rx="35.258964" ry="34.661355" transform="matrix(1.627121 0 0 1.5977 212.94829 158.187291)" fill="#d2dbed" stroke-width="0"/><ellipse rx="35.258964" ry="34.661355" transform="matrix(1.661016 0 0 1.5977 167.676213 138.466175)" fill="#d2dbed" stroke-width="0"/><ellipse rx="35.258964" ry="34.661355" transform="translate(256.772922 185.079681)" fill="#d2dbed" stroke-width="0"/><g transform="matrix(-1 0 0 1 418.098463 0.564237)"><rect width="89.840721" height="67.729044" rx="0" ry="0" transform="matrix(.708355 0.705857-.132863 0.133333 157.326538 202.19915)" fill="#b32d13" stroke-width="0"/><rect width="89.840721" height="67.729044" rx="0" ry="0" transform="matrix(.722637-.691228 0.130109 0.136021 147.779564 210.528447)" fill="#b32d13" stroke-width="0"/></g><g transform="translate(-48.790102 0.564263)"><rect width="89.840721" height="67.729044" rx="0" ry="0" transform="matrix(.708355 0.705857-.132863 0.133333 157.326538 202.19915)" fill="#b32d13" stroke-width="0"/><rect width="89.840721" height="67.729044" rx="0" ry="0" transform="matrix(.722637-.691228 0.130109 0.136021 147.779564 210.528447)" fill="#b32d13" stroke-width="0"/></g><path d="M232.640959,164.362589h17.327737l-22.080202,41.651436h22.080201l-30.157836,51.311177l7.900321-38.445416-33.364584-.000001l33.364584-54.212819q4.92978-.304373,4.929779-.304377Z" transform="matrix(.826372-.097679 0.125512 1.061841-31.23206 18.122767)" fill="url(#eUqvQjegIpt17-fill)" stroke-width="0.6"/></g></svg>
